<svg width="962" height="953" viewBox="0 0 962 953" fill="none" xmlns="http://www.w3.org/2000/svg">
<path d="M17.1499 102.18C23.5518 127.421 70.4602 140.163 106.031 137.207C118.509 136.166 140.648 132.266 165.464 115.648C170.563 118.628 175.638 121.607 180.736 124.611C162.997 137.498 114.948 168.553 54.5137 160.486C39.7544 158.524 26.7877 154.551 15.7997 149.997C11.6326 146.63 4.34609 139.654 1.34302 128.729C-5.7107 102.883 17.1732 76.3095 20.153 77.666C22.0386 78.5139 13.9373 89.584 17.1266 102.204L17.1499 102.18Z" fill="url(#paint0_linear_120_15)"/>
<path d="M175.428 107.631C166.535 104.312 152.87 98.8374 136.761 90.6983C103.657 73.9599 100.77 66.4263 82.9614 62.4052C77.1647 61.0972 40.7787 53.6606 17.3594 77.8114C3.92705 91.643 0.737742 107.388 0.109192 115.527C3.0657 109.956 10.4453 103.755 16.2187 99.7579C20.6651 96.7057 26.6945 91.6188 39.4285 86.8225C43.7119 85.1996 57.1443 83.6493 73.0443 84.7151C97.2318 86.3623 104.751 99.7821 133.408 112.233C143.605 116.666 159.482 122.286 181.038 124.708L175.405 107.606L175.428 107.631Z" fill="url(#paint1_linear_120_15)"/>
<path d="M194.368 118.135C216.647 116.876 259.621 111.643 298.847 86.4995C298.847 86.4995 323.454 70.73 341.845 40.2326C346.291 32.8686 349.806 25.2625 347.339 17.7774C344.685 9.78364 336.56 6.10167 333.441 4.86627C331.625 10.7284 328.436 19.5699 322.895 29.4531C298.777 72.571 256.828 87.7107 245.048 91.4653C234.153 94.9293 215.855 99.2411 192.413 97.4243C193.065 104.328 193.74 111.232 194.392 118.135H194.368Z" fill="url(#paint2_linear_120_15)"/>
<path d="M179.921 240.182C180.014 248.418 178.734 256.799 175.195 264.841C170.702 275.088 165.534 277.994 146.282 299.166C135.573 310.963 130.848 317.212 128.846 320.168C124.516 326.538 120.162 334.968 116.112 347.613C116.112 347.613 108.918 367.258 112.573 386.128C114.016 393.662 116.81 397.198 117.671 398.385C127.1 411.175 145.048 410.303 148.168 410.109C142.837 403.303 134.898 390.731 134.828 374.452C134.735 355.679 145.118 341.775 154.081 329.784C161.367 319.998 168.793 313.24 173.961 309.049C177.034 305.028 192.12 284.535 187.324 259.1C185.834 251.131 182.784 244.784 179.921 240.157V240.182Z" fill="url(#paint3_linear_120_15)"/>
<path d="M166.628 315.565C180.875 284.898 179.176 265.132 174.52 252.487C170.516 241.586 166.023 240.617 161.414 227.222C153.964 205.542 157.992 185.582 160.715 172.113C162.88 161.431 167.466 145.08 178.128 127.227L203.41 115.43C197.87 126.888 174.753 176.135 182.621 198.856C183.04 200.092 186.905 210.919 192.864 224.896C198.428 237.929 198.568 236.742 199.802 240.569C200.198 241.829 207.018 267.651 192.003 292.044C183.902 305.222 173.007 312.198 166.628 315.541V315.565Z" fill="url(#paint4_linear_120_15)"/>
<path d="M193.912 108.745C201.431 109.786 212.047 112.233 222.942 118.822C235.164 126.186 237.864 132.799 254.881 152.299C272.923 172.961 282.258 183.474 297.39 191.856C312.196 200.067 325.326 202.538 330.47 203.338C343.414 205.348 354.332 204.355 361.735 203.095C347.488 211.549 334.987 215.304 326.629 217.145C319.482 218.719 313.918 219.931 306.609 219.252C298.717 218.501 289.545 214.892 273.994 203.798C262.89 195.877 254.974 186.236 239.563 167.269C220.474 143.772 216.237 135.269 202.898 128.414C194.028 123.86 185.764 122.407 180.41 121.85C184.903 117.489 189.419 113.105 193.912 108.745Z" fill="url(#paint5_linear_120_15)"/>
<path d="M202.172 96.6396C204.942 92.0372 208.993 85.521 214.161 77.8664C232.622 50.6392 245.658 31.4057 268.1 16.6052C268.1 16.6052 297.363 -2.70096 321.899 0.981015C327.556 1.82884 333.469 4.42075 333.492 4.42075C340.057 7.30335 343.06 10.404 344.178 11.6636C345.807 13.5046 346.529 14.8853 346.925 15.7331C348.298 18.7853 348.322 21.6679 348.205 23.2666C347.949 22.9517 347.53 22.4915 346.995 22.007C332.212 8.05428 294.918 28.2082 287.352 32.2778C280.415 36.0324 265.563 44.1957 251.036 60.0137C241.631 70.2602 239.14 76.3161 223.287 96.7365C215.418 106.862 208.667 114.88 204.151 120.088C203.499 112.264 202.824 104.464 202.172 96.6396Z" fill="url(#paint6_linear_120_15)"/>
<path d="M170.307 108.503C170.749 100.46 187.557 95.9306 188.488 95.6884C193.982 94.2592 198.638 93.048 202.758 95.6884C209.579 100.049 211.186 112.403 206.669 118.483C205.435 120.13 204.784 119.96 191.817 124.587C183.227 127.663 180.363 128.875 178.128 127.227C176.522 126.04 176.941 124.66 175.009 119.282C174.101 116.763 173.263 115.043 172.565 113.759C171.121 111.119 170.213 110.392 170.33 108.503H170.307Z" fill="url(#paint7_linear_120_15)"/>
<path d="M189.978 459.671C188.185 489.005 179.083 507.028 170.539 518.292C154.22 539.826 132.919 546.076 126.587 570.227C123.817 580.837 125.074 590.575 126.587 597.188C132.594 613.902 138.576 630.616 144.583 647.33C136.761 605.133 144.862 585.827 154.034 575.992C160.669 568.894 168.607 565.988 179.665 553.416C189.908 541.74 195.728 529.822 199.01 521.659C199.36 513.859 199.22 504.678 198.009 494.504C196.356 480.6 193.167 468.851 189.955 459.695L189.978 459.671Z" fill="url(#paint8_linear_120_15)"/>
<path d="M196.985 526.406C200.686 522.046 207.903 512.333 210.836 497.774C213.537 484.354 211.162 473.769 210.58 471.274C206.297 453.251 194.68 442.399 186.393 434.842C182.854 431.62 179.711 429.319 175.963 426.557C165.115 418.563 158.923 415.875 152.055 411.514C146.468 407.978 134.223 400.226 126.145 388.163C122.583 382.834 115.18 369.705 116.135 347.613C112.852 355.025 106.264 372.684 110.734 393.565C115.343 415.099 129.055 428.374 135.434 434.527C151.008 449.569 157.642 445.597 175.312 462.989C183.18 470.741 191.468 479.074 195.844 492.905C200.291 506.907 198.521 519.527 196.985 526.382V526.406Z" fill="#FACBD9"/>
<path d="M132.826 556.371C124.958 573.182 124.865 585.996 125.959 594.063C126.867 600.821 132.151 612.255 142.697 635.122C146.515 643.43 149.751 650.261 154.872 662.155C156.851 666.758 159.039 672.111 161.46 678.506C165.86 690.133 171.098 704.062 174.753 719.395C184.717 761.399 178.548 797.346 176.15 810.548C172.565 830.339 166.465 845.818 154.453 875.952C141.603 908.193 129.078 934.161 119.766 952.353C118.812 939.006 117.881 925.658 116.926 912.311L86.4533 924.205C101.608 906.158 145.63 849.936 147.446 784.314C148.214 756.312 143.116 729.714 143.116 729.714C138.437 705.249 134.13 699.047 123.072 660.847C115.134 633.474 111.223 619.425 113.504 601.814C116.158 581.345 125.633 565.867 132.85 556.347L132.826 556.371Z" fill="url(#paint9_linear_120_15)"/>
<path d="M298.95 196.361C319.11 201.157 331.564 197.354 339.27 192.921C355.938 183.305 355.217 167.826 380.405 136.505C398.68 113.783 409.412 111.676 412.857 111.022C429.036 107.97 443.19 117.271 449.336 121.947C446.007 120.106 441.072 118.022 435.136 118.144C429.758 118.24 417.21 120.275 394.35 153.364C374.911 181.488 375.61 190.935 361.735 203.095C355.426 208.618 344.764 215.231 326.629 217.145C317.387 210.217 308.168 203.289 298.926 196.361H298.95Z" fill="url(#paint10_linear_120_15)"/>
<path d="M521.107 185.582C524.506 186.72 529.488 187.956 535.541 187.931C548.181 187.907 557.842 182.287 563.709 178.508C598.419 156.223 609.849 127.663 641.766 118.143C643.488 117.635 645.164 117.078 647.539 116.714C659.435 114.873 676.964 117.005 700.267 136.432C669.422 129.94 650.588 136.844 639.112 144.329C636.923 145.758 629.241 153.098 613.9 167.802C591.435 189.336 583.566 198.081 568.667 203.41C560.217 206.438 553.28 207.165 550.602 207.359C535.564 208.497 523.552 204.234 516.963 201.254L521.084 185.582H521.107Z" fill="url(#paint11_linear_120_15)"/>
<path d="M407.759 112.063C415.068 109.253 428.873 105.184 445.448 108.188C448.94 108.817 457.344 110.634 466.842 115.963C492.939 130.643 500.062 157.313 524.855 183.862C526.229 185.34 532.188 191.613 541.5 196.943C550.696 202.199 556.981 202.998 559.402 203.192C564.128 203.604 568.085 203.023 570.786 202.417C552.302 213.003 539.032 212.494 531.56 211.041C505.58 206.002 485.35 177.346 468.775 153.873C465.19 148.786 456.017 135.391 441.537 123.909C436.067 119.573 427.896 113.953 416.628 112.403C412.997 111.894 409.9 111.942 407.759 112.088V112.063Z" fill="#FACBD9"/>
<path d="M962 139.46C950.709 148.181 934.321 159.251 912.973 168.553C862.293 190.644 817.177 188.174 799.112 186.308C750.202 181.246 698.405 159.541 681.946 139.436C679.921 136.965 673.053 127.93 660.948 122.867C652.032 119.137 643.605 118.967 637.761 119.427C644.093 117.126 653.964 114.607 665.208 116.86C673.659 118.555 679.455 122.261 681.806 123.715C700.197 135.173 724.152 144.305 751.506 154.745C781.047 166.009 806.748 165.597 822.648 165.355C884.176 164.386 931.271 132.774 953.363 115.358C948.521 122.31 943.702 129.262 938.86 136.19C946.566 137.256 954.294 138.346 962 139.412V139.46Z" fill="url(#paint12_linear_120_15)"/>
<defs>
<linearGradient id="paint0_linear_120_15" x1="-34.5" y1="56.7036" x2="243.371" y2="92.3094" gradientUnits="userSpaceOnUse">
<stop stop-color="#C47982" stop-opacity="0"/>
<stop offset="0.268688" stop-color="#F7B3C4"/>
<stop offset="0.6875" stop-color="#F7B3C4"/>
<stop offset="1" stop-color="#C47982"/>
</linearGradient>
<linearGradient id="paint1_linear_120_15" x1="90.5738" y1="60.3051" x2="230.149" y2="127.692" gradientUnits="userSpaceOnUse">
<stop stop-color="#FACBD9"/>
<stop offset="0.989583" stop-color="#F7B3C4"/>
</linearGradient>
<linearGradient id="paint2_linear_120_15" x1="341" y1="-16.6548" x2="155.82" y2="129.088" gradientUnits="userSpaceOnUse">
<stop offset="0.0208333" stop-color="#C47982" stop-opacity="0"/>
<stop offset="0.203125" stop-color="#F7B3C4"/>
<stop offset="0.645833" stop-color="#F7B3C4"/>
<stop offset="1" stop-color="#C47982"/>
</linearGradient>
<linearGradient id="paint3_linear_120_15" x1="188" y1="239.84" x2="96.0569" y2="446.87" gradientUnits="userSpaceOnUse">
<stop stop-color="#C47982" stop-opacity="0"/>
<stop offset="0.338542" stop-color="#F7B3C4"/>
</linearGradient>
<linearGradient id="paint4_linear_120_15" x1="218" y1="-33.3035" x2="177.203" y2="315.205" gradientUnits="userSpaceOnUse">
<stop stop-color="#F7B3C4"/>
<stop offset="1" stop-color="#FACBD9"/>
</linearGradient>
<linearGradient id="paint5_linear_120_15" x1="174.5" y1="88.9605" x2="275.938" y2="215.546" gradientUnits="userSpaceOnUse">
<stop stop-color="#F7B3C4"/>
<stop offset="1" stop-color="#FACBD9"/>
</linearGradient>
<linearGradient id="paint6_linear_120_15" x1="332.5" y1="-7.28993" x2="146.752" y2="139.981" gradientUnits="userSpaceOnUse">
<stop stop-color="#FACBD9"/>
<stop offset="1" stop-color="#F7B3C4"/>
</linearGradient>
<linearGradient id="paint7_linear_120_15" x1="212.5" y1="68.1497" x2="135.297" y2="136.369" gradientUnits="userSpaceOnUse">
<stop stop-color="#FCDDE7"/>
<stop offset="0.67607" stop-color="#F7B3C4"/>
</linearGradient>
<linearGradient id="paint8_linear_120_15" x1="290" y1="399.563" x2="12.1732" y2="614.056" gradientUnits="userSpaceOnUse">
<stop stop-color="#C47982" stop-opacity="0"/>
<stop offset="0.789688" stop-color="#F7B3C4"/>
</linearGradient>
<linearGradient id="paint9_linear_120_15" x1="133.349" y1="556.347" x2="82.1201" y2="1077.1" gradientUnits="userSpaceOnUse">
<stop stop-color="#FACBD9"/>
<stop offset="1" stop-color="#FACBD9" stop-opacity="0.5"/>
</linearGradient>
<linearGradient id="paint10_linear_120_15" x1="449" y1="91.0416" x2="300.498" y2="256.371" gradientUnits="userSpaceOnUse">
<stop stop-color="#F7B3C4"/>
<stop offset="1" stop-color="#C47982" stop-opacity="0"/>
</linearGradient>
<linearGradient id="paint11_linear_120_15" x1="707.5" y1="116.015" x2="457.312" y2="223.58" gradientUnits="userSpaceOnUse">
<stop stop-color="#F7B3C4"/>
<stop offset="1" stop-color="#C47982" stop-opacity="0"/>
</linearGradient>
<linearGradient id="paint12_linear_120_15" x1="693" y1="114.974" x2="1027.22" y2="169.872" gradientUnits="userSpaceOnUse">
<stop stop-color="#FACBD9"/>
<stop offset="1" stop-color="#F7B3C4" stop-opacity="0.5"/>
</linearGradient>
</defs>
</svg>
