<svg width="962" height="985" viewBox="0 0 962 985" fill="none" xmlns="http://www.w3.org/2000/svg">
<path d="M17.1499 134.18C23.5518 159.421 70.4602 172.163 106.031 169.207C118.509 168.166 140.648 164.266 165.464 147.648C170.563 150.628 175.638 153.607 180.736 156.611C162.997 169.498 114.948 200.553 54.5137 192.486C45.438 191.28 37.04 189.313 29.3632 186.918C20.2242 184.067 11.3231 179.404 6.13131 171.361C4.19361 168.359 2.46785 164.821 1.34302 160.729C-5.7107 134.883 17.1732 108.309 20.153 109.666C22.0386 110.514 13.9373 121.584 17.1266 134.204L17.1499 134.18Z" fill="url(#paint0_linear_120_15)"/>
<path d="M175.428 139.63C166.535 136.312 152.87 130.837 136.761 122.698C103.657 105.96 100.77 98.4262 82.9614 94.4051C77.1647 93.0971 40.7787 85.6604 17.3594 109.811C3.92705 123.643 0.737742 139.388 0.109192 147.527C3.0657 141.956 10.4453 135.755 16.2187 131.758C20.6651 128.706 26.6945 123.619 39.4285 118.822C43.7119 117.199 57.1443 115.649 73.0443 116.715C97.2318 118.362 104.751 131.782 133.408 144.233C143.605 148.666 159.482 154.286 181.038 156.708L175.405 139.606L175.428 139.63Z" fill="url(#paint1_linear_120_15)"/>
<path d="M327.895 44.5583C335.977 69.3129 303.143 105.156 271.499 121.672C260.397 127.461 239.601 135.999 209.745 135.22C207.029 140.463 204.333 145.694 201.629 150.958C223.51 152.367 280.719 152.929 327.483 113.808C334.509 107.937 340.555 101.786 345.763 95.6586C351.963 88.3642 356.994 79.6654 357.082 70.0924C357.115 66.5195 356.683 62.6068 355.446 58.5472C347.592 32.9323 314.047 22.7059 312.254 25.4452C311.113 27.1697 323.878 32.1953 327.928 44.5664L327.895 44.5583Z" fill="url(#paint2_linear_120_15)"/>
<path d="M197.039 133.769C202.781 126.211 211.403 114.28 220.668 98.7898C239.699 66.9483 238.111 59.0382 251.013 46.1203C255.213 41.9163 281.99 16.1817 314.692 24.0747C333.438 28.5846 344.55 40.1871 349.432 46.73C343.955 43.6016 334.403 42.3052 327.388 42.0133C321.998 41.8104 314.183 40.7341 300.857 43.4872C296.37 44.4051 284.188 50.2749 271.32 59.6747C251.758 73.9958 252.577 89.357 235.012 115.198C228.764 124.395 218.35 137.631 201.425 151.201L197.045 133.736L197.039 133.769Z" fill="url(#paint3_linear_120_15)"/>
<path d="M179.921 272.181C180.014 280.417 178.734 288.799 175.195 296.841C170.702 307.088 165.534 309.994 146.282 331.166C135.573 342.963 130.848 349.212 128.846 352.167C124.516 358.538 120.162 366.968 116.112 379.613C116.112 379.613 108.918 399.258 112.573 418.128C114.016 425.662 116.81 429.198 117.671 430.385C127.1 443.175 145.048 442.303 148.168 442.109C142.837 435.303 134.898 422.731 134.828 406.452C134.735 387.679 145.118 373.775 154.081 361.784C161.367 351.998 168.793 345.24 173.961 341.049C177.034 337.028 192.12 316.535 187.324 291.1C185.834 283.13 182.784 276.784 179.921 272.157V272.181Z" fill="url(#paint4_linear_120_15)"/>
<path d="M166.628 347.565C180.875 316.898 179.176 297.132 174.52 284.487C170.516 273.586 166.023 272.617 161.414 259.222C153.964 237.542 157.992 217.582 160.715 204.113C162.88 193.431 167.466 177.08 178.128 159.227L203.41 147.43C197.87 158.888 174.753 208.134 182.621 230.856C183.04 232.091 186.905 242.919 192.864 256.896C198.428 269.929 198.568 268.742 199.802 272.569C200.198 273.829 207.018 299.651 192.003 324.044C183.902 337.221 173.007 344.198 166.628 347.541V347.565Z" fill="url(#paint5_linear_120_15)"/>
<path d="M298.95 228.361C319.11 233.157 331.564 229.354 339.27 224.921C355.938 215.305 355.217 199.826 380.405 168.505C398.68 145.783 409.412 143.676 412.857 143.022C429.036 139.97 443.19 149.271 449.336 153.947C446.007 152.106 441.072 150.022 435.136 150.143C429.758 150.24 417.21 152.275 394.35 185.364C374.911 213.488 373.61 220.935 359.735 233.095C353.426 238.618 344.5 245.5 326.629 249.145C317.387 242.217 308.168 235.289 298.926 228.361H298.95Z" fill="url(#paint6_linear_120_15)"/>
<path d="M193.912 140.745C201.431 141.786 212.047 144.233 222.942 150.822C235.164 158.186 237.864 164.799 254.881 184.299C272.923 204.961 282.258 215.474 297.39 223.856C312.196 232.067 325.326 234.538 330.47 235.337C343.414 237.348 354.332 236.355 361.735 235.095C347.488 243.549 334.987 247.304 326.629 249.145C319.482 250.719 313.918 251.931 306.609 251.252C298.717 250.501 289.545 246.892 273.994 235.798C262.89 227.877 254.974 218.236 239.563 199.269C220.474 175.772 216.237 167.269 202.898 160.414C194.028 155.86 185.764 154.407 180.41 153.85C184.903 149.489 189.419 145.105 193.912 140.745Z" fill="url(#paint7_linear_120_15)"/>
<path d="M170.307 140.503C170.749 132.46 187.557 127.931 188.488 127.688C193.982 126.259 198.638 125.048 202.758 127.688C209.579 132.049 211.186 144.403 206.669 150.483C205.435 152.13 204.784 151.96 191.817 156.587C183.227 159.663 180.363 160.875 178.128 159.227C176.522 158.04 176.941 156.66 175.009 151.282C174.101 148.763 173.263 147.043 172.565 145.759C171.121 143.119 170.213 142.392 170.33 140.503H170.307Z" fill="url(#paint8_linear_120_15)"/>
<path d="M189.978 491.671C188.185 521.005 179.083 539.027 170.539 550.291C154.22 571.826 132.919 578.076 126.587 602.227C123.817 612.836 125.074 622.574 126.587 629.187C132.594 645.902 138.576 662.616 144.583 679.33C136.761 637.133 144.862 617.827 154.034 607.992C160.669 600.894 168.607 597.987 179.665 585.415C189.908 573.74 195.728 561.822 199.01 553.658C199.36 545.858 199.22 536.678 198.009 526.504C196.356 512.6 193.167 500.851 189.955 491.695L189.978 491.671Z" fill="url(#paint9_linear_120_15)"/>
<path d="M196.985 558.406C200.686 554.046 207.903 544.332 210.836 529.774C213.537 516.354 211.162 505.769 210.58 503.274C206.297 485.251 194.68 474.399 186.393 466.841C182.854 463.62 179.711 461.318 175.963 458.557C165.115 450.563 158.923 447.874 152.055 443.514C146.468 439.978 134.223 432.226 126.145 420.163C122.583 414.834 115.18 401.704 116.135 379.613C112.852 387.025 106.264 404.684 110.734 425.565C115.343 447.099 129.055 460.374 135.434 466.527C151.008 481.569 157.642 477.597 175.312 494.989C183.18 502.741 191.468 511.074 195.844 524.905C200.291 538.906 198.521 551.527 196.985 558.382V558.406Z" fill="#FACBD9"/>
<path d="M132.826 588.371C124.958 605.182 124.865 617.996 125.959 626.063C126.867 632.821 132.151 644.255 142.697 667.122C146.515 675.43 149.751 682.261 154.872 694.155C156.851 698.758 159.039 704.111 161.46 710.506C165.86 722.133 171.098 736.062 174.753 751.395C184.717 793.399 178.548 829.346 176.15 842.548C172.565 862.339 166.465 877.818 154.453 907.952C141.603 940.193 129.078 966.161 119.766 984.353C118.812 971.006 117.881 957.658 116.926 944.311L86.4533 956.205C101.608 938.159 145.63 881.936 147.446 816.314C148.214 788.312 143.116 761.714 143.116 761.714C138.437 737.249 134.13 731.048 123.072 692.847C115.134 665.475 111.223 651.425 113.504 633.814C116.158 613.345 125.633 597.867 132.85 588.347L132.826 588.371Z" fill="url(#paint10_linear_120_15)"/>
<path d="M521.107 217.582C524.506 218.72 529.488 219.956 535.541 219.931C548.181 219.907 557.842 214.287 563.709 210.508C598.419 188.223 609.849 159.663 641.766 150.143C643.488 149.635 645.164 149.078 647.539 148.714C659.435 146.873 676.964 149.005 700.267 168.432C669.422 161.94 650.588 168.844 639.112 176.329C636.923 177.758 629.241 185.098 613.9 199.802C591.435 221.336 583.566 230.081 568.667 235.41C560.217 238.438 553.28 239.165 550.602 239.359C535.564 240.497 523.552 236.234 516.963 233.254L521.084 217.582H521.107Z" fill="url(#paint11_linear_120_15)"/>
<path d="M407.759 144.063C415.068 141.253 428.873 137.184 445.448 140.188C448.94 140.817 457.344 142.634 466.842 147.963C492.939 162.643 500.062 189.313 524.855 215.862C526.229 217.339 532.188 223.613 541.5 228.942C550.696 234.199 556.981 234.998 559.402 235.192C564.128 235.604 568.085 235.023 570.786 234.417C552.302 245.003 539.032 244.494 531.56 243.041C505.58 238.002 485.35 209.346 468.775 185.873C465.19 180.786 456.017 167.391 441.537 155.909C436.067 151.573 427.896 145.953 416.628 144.402C412.997 143.894 409.9 143.942 407.759 144.088V144.063Z" fill="#FACBD9"/>
<path d="M962 171.46C950.709 180.181 934.321 191.251 912.973 200.552C862.293 222.644 817.177 220.174 799.112 218.308C750.202 213.246 698.405 191.541 681.946 171.436C679.921 168.965 673.053 159.93 660.948 154.867C652.032 151.137 643.605 150.967 637.761 151.427C644.093 149.126 653.964 146.607 665.208 148.86C673.659 150.555 679.455 154.261 681.806 155.715C700.197 167.172 724.152 176.305 751.506 186.745C781.047 198.009 806.748 197.597 822.648 197.355C884.176 196.386 931.271 164.774 953.363 147.358C948.521 154.31 943.702 161.262 938.86 168.19C946.566 169.256 954.294 170.346 962 171.412V171.46Z" fill="url(#paint12_linear_120_15)"/>
<defs>
<linearGradient id="paint0_linear_120_15" x1="-34.5" y1="88.7036" x2="243.371" y2="124.309" gradientUnits="userSpaceOnUse">
<stop stop-color="#C47982" stop-opacity="0"/>
<stop offset="0.268688" stop-color="#F7B3C4"/>
<stop offset="0.6875" stop-color="#F7B3C4"/>
<stop offset="1" stop-color="#C47982"/>
</linearGradient>
<linearGradient id="paint1_linear_120_15" x1="90.5738" y1="92.305" x2="230.149" y2="159.691" gradientUnits="userSpaceOnUse">
<stop stop-color="#FACBD9"/>
<stop offset="0.989583" stop-color="#F7B3C4"/>
</linearGradient>
<linearGradient id="paint2_linear_120_15" x1="347.239" y1="-21.4851" x2="131.426" y2="157.138" gradientUnits="userSpaceOnUse">
<stop stop-color="#C47982" stop-opacity="0"/>
<stop offset="0.268688" stop-color="#F7B3C4"/>
<stop offset="0.6875" stop-color="#F7B3C4"/>
<stop offset="1" stop-color="#C47982"/>
</linearGradient>
<linearGradient id="paint3_linear_120_15" x1="243.457" y1="48.4145" x2="161.514" y2="179.974" gradientUnits="userSpaceOnUse">
<stop stop-color="#FACBD9"/>
<stop offset="0.989583" stop-color="#F7B3C4"/>
</linearGradient>
<linearGradient id="paint4_linear_120_15" x1="188" y1="271.84" x2="96.0569" y2="478.87" gradientUnits="userSpaceOnUse">
<stop stop-color="#C47982" stop-opacity="0.5"/>
<stop offset="0.338542" stop-color="#F7B3C4"/>
</linearGradient>
<linearGradient id="paint5_linear_120_15" x1="218" y1="-1.3036" x2="177.203" y2="347.205" gradientUnits="userSpaceOnUse">
<stop stop-color="#F7B3C4"/>
<stop offset="1" stop-color="#FACBD9"/>
</linearGradient>
<linearGradient id="paint6_linear_120_15" x1="449" y1="123.042" x2="300.498" y2="288.371" gradientUnits="userSpaceOnUse">
<stop stop-color="#F7B3C4"/>
<stop offset="1" stop-color="#C47982" stop-opacity="0.5"/>
</linearGradient>
<linearGradient id="paint7_linear_120_15" x1="174.5" y1="120.96" x2="275.938" y2="247.546" gradientUnits="userSpaceOnUse">
<stop stop-color="#F7B3C4"/>
<stop offset="1" stop-color="#FACBD9"/>
</linearGradient>
<linearGradient id="paint8_linear_120_15" x1="212.5" y1="100.15" x2="135.297" y2="168.369" gradientUnits="userSpaceOnUse">
<stop stop-color="#FCDDE7"/>
<stop offset="0.67607" stop-color="#F7B3C4"/>
</linearGradient>
<linearGradient id="paint9_linear_120_15" x1="290" y1="431.563" x2="12.1732" y2="646.056" gradientUnits="userSpaceOnUse">
<stop stop-color="#C47982" stop-opacity="0.5"/>
<stop offset="0.789688" stop-color="#F7B3C4"/>
</linearGradient>
<linearGradient id="paint10_linear_120_15" x1="133.349" y1="588.347" x2="82.1201" y2="1109.1" gradientUnits="userSpaceOnUse">
<stop stop-color="#FACBD9"/>
<stop offset="1" stop-color="#FACBD9" stop-opacity="0.5"/>
</linearGradient>
<linearGradient id="paint11_linear_120_15" x1="707.5" y1="148.015" x2="457.312" y2="255.58" gradientUnits="userSpaceOnUse">
<stop stop-color="#F7B3C4"/>
<stop offset="1" stop-color="#C47982" stop-opacity="0.5"/>
</linearGradient>
<linearGradient id="paint12_linear_120_15" x1="693" y1="146.974" x2="1027.22" y2="201.872" gradientUnits="userSpaceOnUse">
<stop stop-color="#FACBD9"/>
<stop offset="1" stop-color="#F7B3C4" stop-opacity="0.5"/>
</linearGradient>
</defs>
</svg>
